<svg width="127" height="24" viewBox="0 0 127 24" fill="none" xmlns="http://www.w3.org/2000/svg">
<g clip-path="url(#clip0_407_2)">
<rect width="127" height="24" fill="white"/>
<path d="M6.13084 20.385C5.17751 20.385 4.30484 20.209 3.51284 19.857C2.72084 19.4977 2.10118 18.9367 1.65384 18.174C1.20651 17.404 1.02318 16.403 1.10384 15.171H4.41484C4.35618 15.6037 4.40751 15.9557 4.56884 16.227C4.73018 16.4983 4.97218 16.6963 5.29484 16.821C5.61751 16.9457 5.98784 17.008 6.40584 17.008C6.73584 17.008 7.04384 16.9823 7.32984 16.931C7.62318 16.8797 7.86884 16.7807 8.06684 16.634C8.26484 16.4873 8.38218 16.271 8.41884 15.985C8.44818 15.6403 8.38218 15.3837 8.22084 15.215C8.05951 15.039 7.75151 14.8373 7.29684 14.61L4.45884 13.224C3.54951 12.7473 2.86018 12.1973 2.39084 11.574C1.92151 10.9507 1.73084 10.1073 1.81884 9.044C1.95084 7.77533 2.51918 6.75967 3.52384 5.997C4.52851 5.23433 5.82651 4.853 7.41784 4.853C9.05318 4.853 10.2705 5.28567 11.0698 6.151C11.8692 7.01633 12.2505 8.23733 12.2138 9.814H8.97984C8.92851 9.34467 8.77451 8.94867 8.51784 8.626C8.26118 8.296 7.79551 8.131 7.12084 8.131C6.63684 8.131 6.24084 8.22633 5.93284 8.417C5.63218 8.60033 5.45251 8.83133 5.39384 9.11C5.37918 9.34467 5.46351 9.54633 5.64684 9.715C5.83751 9.88367 6.11984 10.067 6.49384 10.265L9.41984 11.739C10.4025 12.223 11.1102 12.8023 11.5428 13.477C11.9828 14.1443 12.1588 14.9327 12.0708 15.842C11.9755 16.854 11.6748 17.6973 11.1688 18.372C10.6702 19.0393 9.99184 19.5417 9.13384 19.879C8.28318 20.2163 7.28218 20.385 6.13084 20.385ZM14.5536 20L15.9506 5.194H19.2066L18.6566 11.002H23.6616L24.2116 5.194H27.4346L26.0706 20H22.8146L23.3426 14.192H18.3376L17.8096 20H14.5536ZM34.8663 20.385C33.5903 20.385 32.5013 20.088 31.5993 19.494C30.7046 18.8927 30.0483 18.0127 29.6303 16.854C29.2196 15.688 29.0986 14.258 29.2673 12.564C29.4286 10.8113 29.8246 9.36667 30.4553 8.23C31.0859 7.086 31.9036 6.239 32.9083 5.689C33.9129 5.13167 35.0533 4.853 36.3293 4.853C37.6273 4.853 38.7236 5.14267 39.6183 5.722C40.5203 6.30133 41.1803 7.163 41.5983 8.307C42.0163 9.451 42.1446 10.87 41.9833 12.564C41.8219 14.2873 41.4259 15.7283 40.7953 16.887C40.1719 18.0457 39.3543 18.9183 38.3423 19.505C37.3376 20.0917 36.1789 20.385 34.8663 20.385ZM35.1743 17.107C36.0909 17.107 36.8609 16.7073 37.4843 15.908C38.1076 15.1013 38.4816 13.9683 38.6063 12.509C38.7383 11.1523 38.5696 10.0817 38.1003 9.297C37.6383 8.505 36.9489 8.109 36.0323 8.109C35.1596 8.109 34.4043 8.505 33.7663 9.297C33.1356 10.089 32.7689 11.178 32.6663 12.564C32.5123 14.0013 32.6699 15.1197 33.1393 15.919C33.6086 16.711 34.2869 17.107 35.1743 17.107ZM43.8148 20L45.2118 5.194H54.1988L53.9238 8.329H48.1708L47.9178 11.046H53.2748L52.9558 14.214H47.5988L47.3458 16.832H53.0768L52.8348 20H43.8148ZM57.3725 5.194H60.6505L60.1555 10.43L65.1055 5.194H69.5825L63.0705 11.882L68.6145 20H64.3685L60.5955 14.368L59.7155 15.325L59.2535 20H55.9755L57.3725 5.194ZM70.0048 20L71.4018 5.194H76.6488C78.2988 5.194 79.5601 5.61567 80.4328 6.459C81.3128 7.30233 81.6904 8.44633 81.5658 9.891C81.4411 10.8883 81.1111 11.75 80.5758 12.476C80.0404 13.1947 79.3364 13.7557 78.4638 14.159L81.2138 20H76.9348L75.0538 14.544H73.7448L73.2608 20H70.0048ZM73.9538 12.168H75.6258C76.3884 12.168 76.9788 11.992 77.3968 11.64C77.8221 11.288 78.0604 10.837 78.1118 10.287C78.1484 9.72233 78.0311 9.25667 77.7598 8.89C77.4884 8.516 77.0191 8.329 76.3518 8.329H74.3608L73.9538 12.168ZM83.4749 20L84.8719 5.194H93.8589L93.5839 8.329H87.8309L87.5779 11.046H92.9349L92.6159 14.214H87.2589L87.0059 16.832H92.7369L92.4949 20H83.4749ZM94.3376 20L100.212 5.194H104.348L107.263 20H103.743L103.259 17.448H98.7486L97.7806 20H94.3376ZM99.8046 14.775H102.786L101.818 9.44L99.8046 14.775ZM109.235 20L110.632 5.194H115.296L117.287 12.63L120.752 5.194H125.229L123.854 20H120.554L121.511 9.319L121.665 9.396L117.749 18.647H115.67L113.36 8.824L113.514 8.78L112.491 20H109.235Z" fill="black"/>
</g>
<defs>
<clipPath id="clip0_407_2">
<rect width="127" height="24" fill="white"/>
</clipPath>
</defs>
</svg>
